HIERARCHY
ROOT newVegas:Hips
{
	OFFSET 0.000000 96.479958 0.000000
	CHANNELS 6 Xposition Yposition Zposition Xrotation Yrotation Zrotation
	JOINT newVegas:Pelvis
	{
		OFFSET 0.000000 0.000000 0.000000
		CHANNELS 3 Xrotation Yrotation Zrotation
		JOINT newVegas:LeftUpLeg
		{
			OFFSET 18.735201 -5.666702 -4.541200
			CHANNELS 3 Xrotation Yrotation Zrotation
			JOINT newVegas:LeftLeg
			{
				OFFSET -0.021200 -31.938179 0.493100
				CHANNELS 3 Xrotation Yrotation Zrotation
				JOINT newVegas:LeftFoot
				{
					OFFSET 0.021200 -31.938179 -4.336299
					CHANNELS 3 Xrotation Yrotation Zrotation
					JOINT newVegas:LeftToeBase
					{
						OFFSET 0.943001 -26.722000 15.023500
						CHANNELS 3 Xrotation Yrotation Zrotation
						End Site
						{
							OFFSET 0.000000 30.670183 0.000000
						}
					}
				}
				JOINT newVegas:Left_PantLeg
				{
					OFFSET 0.663870 -9.044666 -1.108900
					CHANNELS 3 Xrotation Yrotation Zrotation
					End Site
					{
						OFFSET 1.415995 20.635357 0.000000
					}
				}
			}
		}
		JOINT newVegas:RightUpLeg
		{
			OFFSET -18.735201 -5.666702 -4.541200
			CHANNELS 3 Xrotation Yrotation Zrotation
			JOINT newVegas:RightLeg
			{
				OFFSET 0.018946 -31.938133 0.493100
				CHANNELS 3 Xrotation Yrotation Zrotation
				JOINT newVegas:RightFoot
				{
					OFFSET -0.018946 -31.938126 -4.336299
					CHANNELS 3 Xrotation Yrotation Zrotation
					JOINT newVegas:RightToeBase
					{
						OFFSET -0.943001 -26.722004 15.023500
						CHANNELS 3 Xrotation Yrotation Zrotation
						End Site
						{
							OFFSET 0.000000 30.670187 0.000000
						}
					}
				}
				JOINT newVegas:Right_PantLeg
				{
					OFFSET -0.661674 -9.044716 -1.108900
					CHANNELS 3 Xrotation Yrotation Zrotation
					End Site
					{
						OFFSET -1.415958 20.635269 0.000000
					}
				}
			}
		}
	}
	JOINT newVegas:Spine
	{
		OFFSET 0.000000 10.199997 -0.299500
		CHANNELS 3 Xrotation Yrotation Zrotation
		JOINT newVegas:Spine1
		{
			OFFSET 0.000000 11.900002 -1.516600
			CHANNELS 3 Xrotation Yrotation Zrotation
			JOINT newVegas:Spine2
			{
				OFFSET 0.000000 13.600006 -2.842500
				CHANNELS 3 Xrotation Yrotation Zrotation
				JOINT newVegas:Neck
				{
					OFFSET 0.000000 9.624100 -2.890100
					CHANNELS 3 Xrotation Yrotation Zrotation
					JOINT newVegas:Head
					{
						OFFSET 0.000000 14.068802 -1.351900
						CHANNELS 3 Xrotation Yrotation Zrotation
						JOINT newVegas:Hair_Back
						{
							OFFSET 0.000000 3.231903 -17.524799
							CHANNELS 3 Xrotation Yrotation Zrotation
							End Site
							{
								OFFSET 0.000000 19.849884 0.000000
							}
						}
						JOINT newVegas:Hair_Front
						{
							OFFSET 0.000000 31.260406 4.573800
							CHANNELS 3 Xrotation Yrotation Zrotation
							JOINT newVegas:Hair_Front1
							{
								OFFSET 0.000000 2.284103 11.993300
								CHANNELS 3 Xrotation Yrotation Zrotation
								JOINT newVegas:Hair_Front2
								{
									OFFSET 0.000000 2.284103 11.993300
									CHANNELS 3 Xrotation Yrotation Zrotation
									End Site
									{
										OFFSET 0.000000 12.208862 0.000000
									}
								}
							}
						}
						JOINT newVegas:Jowel
						{
							OFFSET 0.000000 -7.458206 6.864100
							CHANNELS 3 Xrotation Yrotation Zrotation
							End Site
							{
								OFFSET 0.000000 19.849884 0.000000
							}
						}
					}
				}
				JOINT newVegas:LeftShoulder
				{
					OFFSET 15.263000 10.923401 -0.547700
					CHANNELS 3 Xrotation Yrotation Zrotation
					JOINT newVegas:LeftArm
					{
						OFFSET 25.438599 -2.830597 -13.032500
						CHANNELS 3 Xrotation Yrotation Zrotation
						JOINT newVegas:LeftForeArm
						{
							OFFSET 29.960503 0.000000 0.000000
							CHANNELS 3 Xrotation Yrotation Zrotation
							JOINT newVegas:LeftHand
							{
								OFFSET 27.849251 0.000000 0.000000
								CHANNELS 3 Xrotation Yrotation Zrotation
								JOINT newVegas:LeftHandThumb1
								{
									OFFSET 4.487587 -3.305161 6.305391
									CHANNELS 3 Xrotation Yrotation Zrotation
									JOINT newVegas:LeftHandThumb2
									{
										OFFSET 5.480453 -3.164139 3.164143
										CHANNELS 3 Xrotation Yrotation Zrotation
										JOINT newVegas:LeftHandThumb3
										{
											OFFSET 5.159721 -2.978973 2.978967
											CHANNELS 3 Xrotation Yrotation Zrotation
											End Site
											{
												OFFSET 2.494507 5.926697 1.738678
											}
										}
									}
								}
								JOINT newVegas:LeftHandIndex1
								{
									OFFSET 18.578728 -0.527832 5.208049
									CHANNELS 3 Xrotation Yrotation Zrotation
									JOINT newVegas:LeftHandIndex2
									{
										OFFSET 3.192009 0.000000 0.000000
										CHANNELS 3 Xrotation Yrotation Zrotation
										JOINT newVegas:LeftHandIndex3
										{
											OFFSET 3.835129 0.000000 0.000000
											CHANNELS 3 Xrotation Yrotation Zrotation
											End Site
											{
												OFFSET -0.034599 3.816971 0.371180
											}
										}
									}
								}
								JOINT newVegas:LeftHandMiddle1
								{
									OFFSET 18.476105 0.000000 0.000000
									CHANNELS 3 Xrotation Yrotation Zrotation
									JOINT newVegas:LeftHandMiddle2
									{
										OFFSET 3.324875 0.000000 0.000000
										CHANNELS 3 Xrotation Yrotation Zrotation
										JOINT newVegas:LeftHandMiddle3
										{
											OFFSET 4.596550 0.000000 0.000000
											CHANNELS 3 Xrotation Yrotation Zrotation
											End Site
											{
												OFFSET 0.057701 4.578827 0.399218
											}
										}
									}
								}
								JOINT newVegas:LeftHandRing1
								{
									OFFSET 17.732719 0.121887 -4.201567
									CHANNELS 3 Xrotation Yrotation Zrotation
									JOINT newVegas:LeftHandRing2
									{
										OFFSET 2.733170 0.000000 0.000000
										CHANNELS 3 Xrotation Yrotation Zrotation
										JOINT newVegas:LeftHandRing3
										{
											OFFSET 3.178268 0.000000 0.000000
											CHANNELS 3 Xrotation Yrotation Zrotation
											End Site
											{
												OFFSET 0.119102 3.170624 0.185394
											}
										}
									}
								}
								JOINT newVegas:LeftHandPinky1
								{
									OFFSET 15.989624 -0.606689 -7.535461
									CHANNELS 3 Xrotation Yrotation Zrotation
									JOINT newVegas:LeftHandPinky2
									{
										OFFSET 2.538986 0.000000 0.000000
										CHANNELS 3 Xrotation Yrotation Zrotation
										JOINT newVegas:LeftHandPinky3
										{
											OFFSET 2.593102 0.000000 0.000000
											CHANNELS 3 Xrotation Yrotation Zrotation
											End Site
											{
												OFFSET -0.150902 2.584198 0.152708
											}
										}
									}
								}
							}
							JOINT newVegas:Left_Sleeve
							{
								OFFSET 0.267448 -0.649796 0.577675
								CHANNELS 3 Xrotation Yrotation Zrotation
								End Site
								{
									OFFSET 0.000000 15.991241 0.000000
								}
							}
							JOINT newVegas:Left_CapeC
							{
								OFFSET 15.715958 -8.608795 -6.935905
								CHANNELS 3 Xrotation Yrotation Zrotation
								JOINT newVegas:Left_CapeC1
								{
									OFFSET 0.000000 -8.688499 0.000000
									CHANNELS 3 Xrotation Yrotation Zrotation
									End Site
									{
										OFFSET 0.000000 8.688499 0.000000
									}
								}
							}
						}
						JOINT newVegas:Left_CapeB
						{
							OFFSET 26.118385 -8.608795 -7.079235
							CHANNELS 3 Xrotation Yrotation Zrotation
							JOINT newVegas:Left_CapeB1
							{
								OFFSET 0.000000 -8.688499 0.000000
								CHANNELS 3 Xrotation Yrotation Zrotation
								End Site
								{
									OFFSET 0.000000 8.688499 0.000000
								}
							}
						}
						JOINT newVegas:Left_CapeA
						{
							OFFSET 5.115639 -8.608795 -10.395809
							CHANNELS 3 Xrotation Yrotation Zrotation
							JOINT newVegas:Left_CapeA1
							{
								OFFSET 0.000000 -8.688499 0.000000
								CHANNELS 3 Xrotation Yrotation Zrotation
								End Site
								{
									OFFSET 0.000000 8.688499 0.000000
								}
							}
						}
					}
				}
				JOINT newVegas:RightShoulder
				{
					OFFSET -15.263000 10.923401 -0.547700
					CHANNELS 3 Xrotation Yrotation Zrotation
					JOINT newVegas:RightArm
					{
						OFFSET -25.438599 -2.830597 -13.032500
						CHANNELS 3 Xrotation Yrotation Zrotation
						JOINT newVegas:RightForeArm
						{
							OFFSET -29.960503 0.000000 0.000000
							CHANNELS 3 Xrotation Yrotation Zrotation
							JOINT newVegas:RightHand
							{
								OFFSET -27.849251 0.000000 0.000000
								CHANNELS 3 Xrotation Yrotation Zrotation
								JOINT newVegas:RightHandThumb1
								{
									OFFSET -4.487587 -3.305161 6.305391
									CHANNELS 3 Xrotation Yrotation Zrotation
									JOINT newVegas:RightHandThumb2
									{
										OFFSET -5.480453 -3.164139 3.164143
										CHANNELS 3 Xrotation Yrotation Zrotation
										JOINT newVegas:RightHandThumb3
										{
											OFFSET -5.159721 -2.978973 2.978967
											CHANNELS 3 Xrotation Yrotation Zrotation
											End Site
											{
												OFFSET -2.494507 5.926697 1.738678
											}
										}
									}
								}
								JOINT newVegas:RightHandIndex1
								{
									OFFSET -18.578728 -0.527832 5.208049
									CHANNELS 3 Xrotation Yrotation Zrotation
									JOINT newVegas:RightHandIndex2
									{
										OFFSET -3.192009 0.000000 0.000000
										CHANNELS 3 Xrotation Yrotation Zrotation
										JOINT newVegas:RightHandIndex3
										{
											OFFSET -3.835129 0.000000 0.000000
											CHANNELS 3 Xrotation Yrotation Zrotation
											End Site
											{
												OFFSET 0.034599 3.816971 0.371180
											}
										}
									}
								}
								JOINT newVegas:RightHandMiddle1
								{
									OFFSET -18.476105 0.000000 0.000000
									CHANNELS 3 Xrotation Yrotation Zrotation
									JOINT newVegas:RightHandMiddle2
									{
										OFFSET -3.324875 0.000000 0.000000
										CHANNELS 3 Xrotation Yrotation Zrotation
										JOINT newVegas:RightHandMiddle3
										{
											OFFSET -4.596550 0.000000 0.000000
											CHANNELS 3 Xrotation Yrotation Zrotation
											End Site
											{
												OFFSET -0.057701 4.578827 0.399218
											}
										}
									}
								}
								JOINT newVegas:RightHandRing1
								{
									OFFSET -17.732719 0.121887 -4.201567
									CHANNELS 3 Xrotation Yrotation Zrotation
									JOINT newVegas:RightHandRing2
									{
										OFFSET -2.733170 0.000000 0.000000
										CHANNELS 3 Xrotation Yrotation Zrotation
										JOINT newVegas:RightHandRing3
										{
											OFFSET -3.178268 0.000000 0.000000
											CHANNELS 3 Xrotation Yrotation Zrotation
											End Site
											{
												OFFSET -0.119102 3.170624 0.185394
											}
										}
									}
								}
								JOINT newVegas:RightHandPinky1
								{
									OFFSET -15.989624 -0.606689 -7.535461
									CHANNELS 3 Xrotation Yrotation Zrotation
									JOINT newVegas:RightHandPinky2
									{
										OFFSET -2.538986 0.000000 0.000000
										CHANNELS 3 Xrotation Yrotation Zrotation
										JOINT newVegas:RightHandPinky3
										{
											OFFSET -2.593102 0.000000 0.000000
											CHANNELS 3 Xrotation Yrotation Zrotation
											End Site
											{
												OFFSET 0.150902 2.584198 0.152708
											}
										}
									}
								}
							}
							JOINT newVegas:Right_CapeC
							{
								OFFSET -15.715958 -8.608795 -6.935905
								CHANNELS 3 Xrotation Yrotation Zrotation
								JOINT newVegas:Right_CapeC1
								{
									OFFSET 0.000000 -8.688499 0.000000
									CHANNELS 3 Xrotation Yrotation Zrotation
									End Site
									{
										OFFSET 0.000000 8.688499 0.000000
									}
								}
							}
							JOINT newVegas:Right_Sleeve
							{
								OFFSET -0.267448 -0.649994 0.577675
								CHANNELS 3 Xrotation Yrotation Zrotation
								End Site
								{
									OFFSET 0.000000 15.991302 0.000000
								}
							}
						}
						JOINT newVegas:Right_CapeA
						{
							OFFSET -5.115540 -8.608795 -10.395824
							CHANNELS 3 Xrotation Yrotation Zrotation
							JOINT newVegas:Right_CapeA1
							{
								OFFSET 0.000000 -8.688499 0.000000
								CHANNELS 3 Xrotation Yrotation Zrotation
								End Site
								{
									OFFSET 0.000000 8.688499 0.000000
								}
							}
						}
						JOINT newVegas:Right_CapeB
						{
							OFFSET -26.118187 -8.608795 -7.079266
							CHANNELS 3 Xrotation Yrotation Zrotation
							JOINT newVegas:Right_CapeB1
							{
								OFFSET 0.000000 -8.688499 0.000000
								CHANNELS 3 Xrotation Yrotation Zrotation
								End Site
								{
									OFFSET 0.000000 8.688499 0.000000
								}
							}
						}
					}
				}
				JOINT newVegas:Left_Collar
				{
					OFFSET 18.625099 8.655502 8.828100
					CHANNELS 3 Xrotation Yrotation Zrotation
					JOINT newVegas:Left_Collar1
					{
						OFFSET 14.783401 10.540405 -1.259500
						CHANNELS 3 Xrotation Yrotation Zrotation
						End Site
						{
							OFFSET 0.000000 18.199875 0.000000
						}
					}
				}
				JOINT newVegas:Collar_Back
				{
					OFFSET 0.000000 15.630707 -20.132601
					CHANNELS 3 Xrotation Yrotation Zrotation
					End Site
					{
						OFFSET 0.000000 22.523010 0.000000
					}
				}
				JOINT newVegas:Left_Peck
				{
					OFFSET 17.239599 -5.132599 25.482599
					CHANNELS 3 Xrotation Yrotation Zrotation
					End Site
					{
						OFFSET 0.000000 22.523010 0.000000
					}
				}
				JOINT newVegas:Right_Peck
				{
					OFFSET -17.239599 -5.132202 25.482599
					CHANNELS 3 Xrotation Yrotation Zrotation
					End Site
					{
						OFFSET 0.000000 22.523010 0.000000
					}
				}
				JOINT newVegas:Right_Collar
				{
					OFFSET -18.625099 8.655792 8.828100
					CHANNELS 3 Xrotation Yrotation Zrotation
					JOINT newVegas:Right_Collar1
					{
						OFFSET -14.783401 10.539993 -1.259500
						CHANNELS 3 Xrotation Yrotation Zrotation
						End Site
						{
							OFFSET 0.000000 18.199631 0.000000
						}
					}
				}
			}
		}
		JOINT newVegas:Belly
		{
			OFFSET 0.000000 -6.540398 9.014299
			CHANNELS 3 Xrotation Yrotation Zrotation
			End Site
			{
				OFFSET 0.000000 11.566666 0.000000
			}
		}
	}
	JOINT newVegas:ElvisFacialAnim_Joint
	{
		OFFSET 1.000000 -95.330101 -8.825800
		CHANNELS 3 Xrotation Yrotation Zrotation
		End Site
		{
			OFFSET 0.000000 35.315800 0.000000
		}
	}
}
MOTION
Frames: 4
Frame Time: 0.016667
-2.783956 87.822464 2.837317 -6.078097 -42.937930 -3.789456 -0.000000 -0.000003 -0.000000 -34.393066 2.849960 16.371219 38.633046 -14.745557 -0.131482 -1.804925 0.989410 -11.110716 -0.000000 0.000001 0.000000 -0.000000 0.000002 0.000000 1.083457 -13.658552 -18.458173 33.744823 -7.728623 -0.245048 -25.563004 -6.500541 21.389688 0.000000 0.000002 0.000000 -0.000002 0.000003 -0.000003 5.850682 4.526503 -1.455086 11.836539 9.038709 -3.084348 11.836539 9.038694 -3.084345 -0.860945 -0.253287 0.048896 -0.860946 -0.253290 0.048900 0.000000 -0.000001 0.000000 -0.861018 -0.253296 0.048900 -0.860865 -0.253287 0.048898 -0.000000 -0.000004 0.000001 0.000000 -0.000001 -0.000000 1.392499 -0.696014 -7.877855 -14.260097 2.394329 -63.277106 9.865074 -47.524921 5.927939 16.172850 0.915178 18.795456 9.143015 4.783889 -5.500143 -0.301081 0.107995 0.795286 -0.000001 -0.000002 0.000002 -0.902032 -6.980995 -3.808344 0.026630 0.799128 -16.417997 -0.000002 -0.000000 -0.000001 1.947878 9.683067 -14.539680 -0.466567 -1.573701 -21.879813 0.000001 0.000001 -0.000001 2.605925 14.896812 -31.345207 -0.561690 -2.697450 -32.012099 0.000004 0.000003 0.000001 4.170633 18.495013 -34.987289 -0.700302 -5.780898 -39.372506 0.000003 -0.000001 -0.000004 0.000000 0.000001 -0.000000 0.000000 0.000001 -0.000000 -0.000001 0.000001 -0.000000 0.000002 0.000000 -0.000002 0.000002 -0.000001 -0.000002 0.000002 0.000000 -0.000002 0.000000 -0.000001 -0.000002 1.410967 9.461536 9.792729 1.220077 -24.270725 60.532920 -6.660709 41.858439 8.043842 6.225232 12.322314 11.673336 -8.895700 -4.903268 -0.383704 7.904846 -19.192213 -2.856784 0.000000 0.000000 -0.000000 -1.085551 -1.215402 4.525420 0.128079 -1.119900 16.942414 0.000001 0.000001 0.000000 -0.665777 -2.894570 12.730838 -0.670887 1.818958 30.578296 -0.000000 0.000001 0.000000 2.420454 -7.405540 21.762801 -0.974642 3.771134 37.430369 0.000000 0.000001 -0.000003 3.480946 -10.055025 24.322544 -1.465929 7.881290 41.092071 -0.000000 0.000000 -0.000003 -0.000000 -0.000001 0.000003 -0.000000 -0.000001 0.000001 -0.000000 -0.000001 0.000001 -0.000001 0.000000 0.000002 -0.000001 0.000001 0.000002 -0.000001 0.000000 0.000002 -0.000001 0.000001 0.000001 0.000000 0.000001 -0.000001 0.000000 0.000001 -0.000001 0.000000 0.000001 -0.000001 0.000000 0.000001 -0.000001 0.000000 0.000001 -0.000001 0.000000 0.000001 -0.000001 0.000000 0.000001 -0.000001 0.000000 0.000001 -0.000000 -0.000000 -0.000003 -0.000000 
-2.564960 87.908493 2.618107 -6.171928 -43.066839 -3.879568 -0.000000 -0.000003 -0.000000 -34.255728 2.915373 16.465996 37.990547 -14.454793 -0.303122 -1.275352 0.703160 -11.113823 -0.000000 -0.000000 -0.000000 -0.000001 -0.000004 0.000001 0.490289 -13.819480 -18.609484 34.155522 -7.116539 -0.255131 -25.394619 -6.400305 21.108729 -0.000000 0.000000 0.000000 -0.000001 0.000002 -0.000000 5.881335 4.509889 -1.440345 11.898882 9.008190 -3.077234 11.898874 9.008202 -3.077237 -0.886426 -0.251738 0.065602 -0.886420 -0.251737 0.065599 0.000002 0.000000 0.000000 -0.886418 -0.251746 0.065605 -0.886338 -0.251737 0.065601 0.000001 -0.000000 -0.000000 0.000002 0.000000 -0.000000 1.401859 -0.822651 -7.787730 -14.062054 2.347404 -63.133549 10.053588 -47.618146 5.985819 16.200691 0.994733 19.382977 9.158625 4.725379 -5.454712 0.188499 0.417715 0.798299 0.000002 -0.000004 0.000000 -0.958168 -6.941306 -4.413340 0.024139 0.791021 -16.487790 0.000001 0.000002 -0.000005 2.036512 9.671559 -15.139977 -0.465811 -1.571748 -21.854483 0.000004 -0.000002 0.000001 2.574113 14.834107 -31.340149 -0.563084 -2.699681 -32.043208 -0.000004 -0.000001 -0.000000 4.238384 18.498980 -35.334105 -0.697798 -5.785160 -39.451319 0.000002 -0.000002 -0.000001 0.000001 -0.000002 0.000002 0.000001 -0.000002 0.000002 -0.000000 -0.000002 0.000002 0.000001 0.000000 0.000001 0.000001 -0.000001 0.000001 0.000001 0.000000 0.000001 0.000001 -0.000001 0.000001 1.466865 9.326476 9.780290 0.638234 -23.863779 60.130725 -6.816776 41.825384 8.076374 6.034888 12.620479 11.250453 -8.972871 -4.851970 -0.420223 8.125485 -18.985139 -2.690100 0.000001 -0.000001 0.000001 -1.120328 -1.139229 4.966057 0.131799 -1.131923 16.816856 0.000001 0.000002 0.000001 -0.659740 -2.887932 12.813745 -0.667699 1.813545 30.476844 0.000000 -0.000001 0.000001 2.379482 -7.285900 22.042047 -0.967372 3.761644 37.319382 -0.000000 0.000001 0.000003 3.532382 -10.190438 24.332995 -1.452832 7.866234 40.832015 0.000001 -0.000000 0.000004 0.000002 0.000001 -0.000000 0.000000 -0.000000 -0.000000 0.000002 0.000001 -0.000002 -0.000000 -0.000001 -0.000001 -0.000000 0.000000 -0.000001 -0.000000 -0.000001 -0.000001 -0.000000 -0.000000 -0.000003 -0.000000 0.000000 0.000000 -0.000000 0.000000 0.000000 -0.000000 0.000000 0.000000 -0.000000 0.000000 0.000000 -0.000000 0.000000 0.000000 -0.000000 0.000000 0.000000 -0.000000 0.000000 0.000000 -0.000000 0.000001 0.000000 -0.000000 -0.000003 -0.000000 
-2.330359 88.031349 2.319090 -6.183900 -43.215160 -3.965467 -0.000000 0.000000 0.000000 -34.126323 2.996082 16.652928 37.103442 -14.038133 -0.513300 -0.566110 0.282695 -11.127293 -0.000000 0.000001 -0.000000 -0.000000 -0.000001 0.000001 -0.277813 -14.048206 -18.646603 34.569613 -6.457575 -0.328521 -25.128855 -6.232609 20.741920 -0.000000 0.000000 -0.000000 0.000001 0.000001 -0.000000 5.922460 4.487075 -1.417123 11.981814 8.966216 -3.057288 11.981816 8.966204 -3.057286 -0.926868 -0.240120 0.086556 -0.926870 -0.240116 0.086556 0.000001 0.000000 -0.000001 -0.926803 -0.240096 0.086549 -0.926953 -0.240117 0.086556 -0.000002 0.000002 -0.000001 0.000001 0.000000 0.000000 1.424251 -0.917261 -7.638832 -13.828633 2.336944 -63.082944 10.239114 -47.620786 6.058591 16.425401 0.929096 20.144086 9.173015 4.617631 -5.382489 1.007830 0.982162 0.784570 0.000000 -0.000002 0.000002 -1.080093 -6.902724 -5.464025 0.021396 0.782101 -16.564493 0.000001 -0.000001 -0.000002 2.179177 9.621888 -16.188810 -0.471072 -1.570364 -21.850163 0.000000 -0.000002 -0.000000 2.576057 14.731915 -31.569729 -0.560843 -2.704470 -32.093836 0.000002 -0.000004 -0.000001 4.353769 18.523982 -35.859921 -0.692981 -5.791262 -39.531082 0.000000 -0.000003 0.000002 -0.000003 0.000002 -0.000002 -0.000003 0.000002 -0.000002 -0.000003 0.000003 -0.000002 0.000001 -0.000001 -0.000001 0.000002 -0.000001 -0.000001 0.000001 -0.000001 -0.000001 0.000002 0.000000 -0.000001 1.548607 9.197634 9.728926 -0.123828 -23.268388 59.659947 -6.921684 41.713420 8.099089 5.976526 12.974418 10.588704 -9.096282 -4.769456 -0.477912 8.264816 -18.775749 -2.508981 -0.000000 0.000000 -0.000000 -1.151631 -1.039403 5.376216 0.137450 -1.150276 16.624532 -0.000000 0.000004 0.000001 -0.653065 -2.883162 12.864822 -0.661488 1.799803 30.309115 -0.000001 -0.000001 0.000001 2.335063 -7.175453 22.316859 -0.956283 3.749337 37.136650 -0.000000 -0.000003 0.000005 3.606865 -10.405707 24.310090 -1.436085 7.850955 40.538040 -0.000001 0.000003 0.000001 -0.000000 0.000000 -0.000001 -0.000000 0.000000 -0.000001 -0.000000 0.000000 -0.000001 -0.000000 0.000003 0.000002 -0.000000 0.000004 0.000001 -0.000000 0.000003 0.000002 -0.000000 0.000004 0.000001 0.000000 0.000001 -0.000000 0.000000 0.000001 -0.000000 0.000000 0.000001 -0.000000 0.000000 0.000001 -0.000000 0.000000 0.000001 -0.000000 0.000000 0.000001 -0.000000 0.000000 0.000001 -0.000000 -0.000000 0.000001 -0.000000 -0.000000 0.000000 0.000000 
-2.062449 88.260498 1.823470 -6.070859 -43.398120 -4.072887 -0.000000 0.000001 0.000000 -33.894500 3.128253 17.106543 35.476235 -13.351126 -0.825232 0.631763 -0.490782 -11.282469 -0.000000 -0.000001 0.000000 -0.000000 -0.000002 -0.000001 -1.289988 -14.531238 -18.399722 34.789948 -5.626353 -0.595951 -24.615542 -5.955695 20.168271 -0.000000 0.000000 -0.000000 0.000001 -0.000001 -0.000002 6.000214 4.446596 -1.368790 12.136438 8.890873 -2.994821 12.136440 8.890862 -2.994817 -0.990297 -0.204322 0.111505 -0.990286 -0.204328 0.111504 -0.000000 0.000000 -0.000000 -0.990357 -0.204323 0.111501 -0.990217 -0.204316 0.111500 -0.000001 -0.000002 -0.000000 -0.000000 0.000000 0.000000 1.480747 -0.968465 -7.357330 -13.473012 2.397445 -63.225224 10.445004 -47.365149 6.152070 17.081992 0.460960 21.365412 9.194229 4.397454 -5.240274 2.808059 2.235762 0.718574 0.000002 -0.000002 -0.000005 -1.409021 -6.869441 -7.861246 0.012220 0.773626 -16.652701 -0.000002 0.000001 -0.000003 2.493123 9.474520 -18.639084 -0.485900 -1.571235 -21.897071 0.000000 -0.000001 0.000003 2.669360 14.511102 -32.472464 -0.555808 -2.714349 -32.197194 -0.000000 0.000001 0.000001 4.607239 18.590213 -36.929416 -0.682535 -5.802194 -39.617433 0.000001 0.000000 -0.000001 -0.000001 -0.000001 -0.000000 -0.000001 -0.000001 -0.000000 -0.000002 -0.000001 -0.000000 -0.000001 -0.000001 0.000002 -0.000000 -0.000001 0.000002 -0.000001 -0.000001 0.000002 -0.000000 -0.000002 0.000002 1.699779 9.063901 9.572952 -1.390749 -22.194256 59.019412 -6.909163 41.325370 8.080213 6.289870 13.518286 9.316039 -9.337840 -4.606809 -0.590506 8.194678 -18.557877 -2.290271 0.000001 -0.000001 -0.000000 -1.167074 -0.886026 5.671151 0.148033 -1.184227 16.268840 0.000000 0.000000 0.000000 -0.639249 -2.885173 12.772661 -0.654324 1.769152 29.971437 -0.000001 0.000001 0.000002 2.289834 -7.091425 22.555979 -0.934108 3.724410 36.768684 -0.000000 0.000002 0.000004 3.751376 -10.858937 24.169895 -1.411319 7.835667 40.176327 -0.000001 0.000003 0.000003 -0.000000 -0.000001 -0.000000 0.000001 -0.000001 -0.000000 -0.000000 -0.000001 -0.000000 -0.000001 0.000003 0.000002 -0.000001 0.000003 -0.000000 -0.000001 0.000003 0.000002 -0.000001 0.000003 0.000001 0.000003 0.000001 -0.000001 0.000003 0.000001 -0.000001 0.000003 0.000001 -0.000001 0.000003 0.000001 -0.000001 0.000003 0.000001 -0.000001 0.000003 0.000001 -0.000001 0.000003 0.000001 -0.000001 0.000000 0.000001 -0.000000 -0.000000 0.000001 0.000000 
